<svg width="512" height="512" viewBox="0 0 512 512" fill="none" xmlns="http://www.w3.org/2000/svg">
<rect width="512" height="512" rx="256" fill="black"/>
<path d="M237.6 73.7999C239.4 74.7999 252.2 75.9999 266 76.7999C279.8 77.3999 296.8 79.3999 304 80.9999C311.2 82.5999 320.4 83.9999 324.8 83.9999C331.8 83.9999 348 90.9999 348 93.9999C348 94.7999 350.8 98.4 354 102C364.4 113.6 363.8 118.4 350.8 134.4L346.2 140L352.2 149.4C366 171.4 380.8 197.6 383.4 205C385.8 211.6 385.8 214.4 383.8 220.6C381.4 228 381.4 228.2 388.4 234C397 241.2 417 265.6 418.8 271.2C420.4 276.8 416.4 281.4 407 284.6C398.4 287.6 398.4 287.6 401 304C402.2 312.2 401.8 314 397 319.6C392.6 324.8 392 326.6 394 329C397.6 333.4 394.8 341.2 388 346C382.4 350 382.2 350.6 383.2 361.8C384.4 373.2 384.4 373.4 376.6 381.6C367.2 391.4 362.2 392 333.8 386.6C304.6 381 301 385.6 307.2 418.4L311.2 438.2L305.6 443.8C295.8 453.8 269.4 458 245.8 453.4C223.8 449 201.4 439.6 182 426.4C165.6 415.4 165 414.8 165.6 408C165.8 404.2 168.8 392.2 172.2 381.6L178.6 362.2L170.6 352.6C166.2 347.4 160.8 340.2 158.8 337C156.6 333.6 150.8 325 145.8 318C134.4 301.8 128.2 290 119.2 267C109.8 242.6 109.8 242.4 109.2 222.4C108.8 212.6 107.4 202.6 106 200.2C99 187 117.4 138.6 136.4 120.8C140 117.2 145.8 111.8 149 108.8C156.6 101.6 183.8 85.9999 188.6 85.9999C191.8 85.9999 201.8 82.3999 217 75.7999C219.2 74.9999 223.8 73.7999 227 73.3999C230.4 72.9999 233.2 72.3999 233.6 72.1999C234 72.1999 235.8 72.7999 237.6 73.7999Z" fill="white"/>
</svg>
